<svg width="50" height="36" viewBox="0 0 50 36" fill="none" xmlns="http://www.w3.org/2000/svg">
<path d="M10.0385 19.1428V35.9134H0.00134277V11.8656C0.00143144 11.2897 0.192616 10.7297 0.545503 10.2718C0.898391 9.8139 1.39344 9.48339 1.95454 9.33117C2.51565 9.17889 3.11174 9.21328 3.65117 9.42907C4.19059 9.64486 4.64349 10.03 4.94023 10.5254C4.94423 10.5294 4.94422 10.5334 4.94822 10.5368L10.0385 19.1428Z" fill="url(#paint0_linear)"/>
<path d="M29.6997 0.528168V24.5997C29.6999 25.1772 29.508 25.7385 29.1537 26.1972C28.7994 26.6559 28.3025 26.9864 27.7395 27.1376C27.1765 27.2888 26.579 27.2523 26.0392 27.0337C25.4992 26.8152 25.047 26.4268 24.7524 25.9285L19.6626 17.3171V0.528168H29.6997Z" fill="url(#paint1_linear)"/>
<path d="M29.7182 24.0716V35.9159H19.9639L12.9936 24.1344C12.9936 24.1304 12.9896 24.1304 12.9896 24.1265L12.9856 24.1225L10.0372 19.1428L4.94688 10.5393C4.94288 10.5358 4.94287 10.5319 4.93887 10.5279C4.64214 10.0325 4.18925 9.64728 3.64982 9.43153C3.1104 9.21574 2.5143 9.18136 1.9532 9.33358C1.3921 9.48585 0.897048 9.81632 0.54416 10.2742C0.191273 10.7321 8.86628e-05 11.2921 0 11.8681V0H9.75433L17.931 13.836C17.9376 13.8413 17.943 13.8479 17.947 13.8553L19.2413 16.0479L19.2453 16.0518C19.2493 16.0558 19.2493 16.0637 19.2533 16.0672L19.6795 16.7889L24.7698 25.4004C25.0643 25.8992 25.5165 26.288 26.0566 26.5069C26.5967 26.7257 27.1946 26.7624 27.7578 26.6112C28.321 26.4599 28.8183 26.1292 29.1726 25.6701C29.527 25.2111 29.7187 24.6493 29.7182 24.0716Z" fill="url(#paint2_linear)"/>
<path d="M29.7182 24.0716V35.9159H19.9639L12.9936 24.1344C12.9936 24.1304 12.9896 24.1304 12.9896 24.1265L12.9856 24.1225L10.0372 19.1428L4.94688 10.5393C4.94288 10.5358 4.94287 10.5319 4.93887 10.5279C4.64214 10.0325 4.18925 9.64728 3.64982 9.43153C3.1104 9.21574 2.5143 9.18136 1.9532 9.33358C1.3921 9.48585 0.897048 9.81632 0.54416 10.2742C0.191273 10.7321 8.86628e-05 11.2921 0 11.8681V0H9.75433L17.931 13.836C17.9376 13.8413 17.943 13.8479 17.947 13.8553L19.2413 16.0479L19.2453 16.0518C19.2493 16.0558 19.2493 16.0637 19.2533 16.0672L19.6795 16.7889L24.7698 25.4004C25.0643 25.8992 25.5165 26.288 26.0566 26.5069C26.5967 26.7257 27.1946 26.7624 27.7578 26.6112C28.321 26.4599 28.8183 26.1292 29.1726 25.6701C29.527 25.2111 29.7187 24.6493 29.7182 24.0716Z" fill="url(#paint3_linear)"/>
<g style="mix-blend-mode:multiply" opacity="0.16">
<g style="mix-blend-mode:multiply" opacity="0.16">
<path d="M10.0385 19.1427V22.6443C6.02364 16.0557 1.7779 16.2803 0.00134277 16.7533V11.868C0.00143144 11.2921 0.192616 10.7321 0.545503 10.2742C0.898391 9.81628 1.39344 9.48581 1.95454 9.33354C2.51565 9.18132 3.11174 9.2157 3.65117 9.43149C4.19059 9.64728 4.64349 10.0325 4.94023 10.5279C4.94423 10.5318 4.94422 10.5358 4.94822 10.5392L10.0385 19.1427Z" fill="black"/>
</g>
</g>
<g style="mix-blend-mode:multiply" opacity="0.16">
<g style="mix-blend-mode:multiply" opacity="0.16">
<path d="M29.7181 19.1665V24.0715C29.7182 24.6489 29.5264 25.2103 29.1721 25.669C28.8178 26.1277 28.3208 26.4581 27.7579 26.6094C27.1949 26.7605 26.5974 26.724 26.0575 26.5055C25.5176 26.287 25.0654 25.8986 24.7708 25.4003L19.681 16.7889V13.9107C23.8792 18.6539 27.6827 19.2689 29.7181 19.1665Z" fill="black"/>
</g>
</g>
<g style="mix-blend-mode:screen" opacity="0.5">
<g style="mix-blend-mode:screen" opacity="0.5">
<path d="M17.933 13.836C17.1804 12.7318 16.4673 11.5999 15.7342 10.4883L14.6508 8.789L13.5839 7.0877C12.8706 5.94789 12.167 4.80445 11.473 3.65738C10.8118 2.58089 10.1707 1.49253 9.52101 0.412089C7.97184 0.420005 6.42666 0.400215 4.88098 0.400215L2.43979 0.369054C1.7345 0.361139 1.02819 0.349263 0.320906 0.333432C0.292921 1.66618 0.252942 2.99497 0.208966 4.32772C0.137504 5.77078 0.0975244 7.21385 0.0020752 8.65692V0H9.75639L17.933 13.836Z" fill="white"/>
</g>
</g>
<g style="mix-blend-mode:multiply" opacity="0.25">
<g style="mix-blend-mode:multiply" opacity="0.25">
<path d="M29.718 0V22.8491C29.5786 20.945 29.4986 19.0399 29.4311 17.1357L29.3592 14.2813L29.3157 11.4228L29.2997 8.56836L29.3157 5.7134L29.3592 2.85497L29.4272 0.268128C28.5866 0.236962 27.7466 0.209258 26.91 0.165723C25.974 0.126641 25.034 0.0667857 24.098 0H29.718Z" fill="black"/>
</g>
</g>
<g style="mix-blend-mode:screen" opacity="0.5">
<g style="mix-blend-mode:screen" opacity="0.5">
<path d="M28.1485 35.9158H19.9638L12.9935 24.1343C13.6667 25.057 14.3079 25.9994 14.9375 26.9497C15.2519 27.4266 15.5667 27.904 15.8735 28.3888C16.1803 28.8737 16.4907 29.3471 16.7896 29.8359C17.3985 30.8022 17.9932 31.7774 18.5736 32.7616C18.8735 33.2464 19.1593 33.7431 19.4461 34.2363L20.1957 35.5295C21.4825 35.5532 22.7689 35.5883 24.0592 35.6477C25.4205 35.7071 26.7867 35.7857 28.1485 35.9158Z" fill="white"/>
</g>
</g>
<g style="mix-blend-mode:multiply" opacity="0.25">
<g style="mix-blend-mode:multiply" opacity="0.25">
<path d="M10.0385 23.7678V35.9158H1.46307C2.17619 35.8446 2.89281 35.7897 3.60593 35.7422C4.31905 35.6947 5.03567 35.6635 5.75479 35.6279C6.46741 35.6042 7.18053 35.5691 7.89765 35.5572C8.47484 35.5454 9.05254 35.5295 9.63423 35.5216C9.62623 34.6425 9.61823 33.759 9.63023 32.8799C9.63423 31.8667 9.65771 30.8515 9.6802 29.8398C9.71219 28.8306 9.75216 27.817 9.80764 26.8038C9.86311 25.7907 9.93057 24.7809 10.0385 23.7678Z" fill="black"/>
</g>
</g>
<g style="mix-blend-mode:screen" opacity="0.7">
<g style="mix-blend-mode:screen" opacity="0.7">
<path d="M10.0392 19.1428L4.94895 10.5393C4.94496 10.5358 4.94496 10.5319 4.94096 10.5279C4.64423 10.0325 4.19132 9.64727 3.6519 9.43153C3.11247 9.21574 2.51638 9.18136 1.95528 9.33358C1.39417 9.48585 0.899123 9.81632 0.546236 10.2742C0.193348 10.7321 0.00216386 11.2921 0.0020752 11.8681V0C0.0775351 0.989418 0.113529 1.97884 0.165501 2.96529C0.193486 3.46 0.212968 3.95471 0.22896 4.44941L0.278936 5.93354C0.302923 6.92296 0.338409 7.91238 0.346405 8.89883C0.350403 9.22187 0.35839 9.54195 0.362388 9.865C0.426354 9.79772 0.493813 9.73093 0.55778 9.66365C0.682553 9.55476 0.812819 9.45226 0.948077 9.35644C1.0875 9.26937 1.23893 9.19862 1.38235 9.12343C1.53727 9.0606 1.69268 9.01311 1.84809 8.95819C2.01151 8.92653 2.17093 8.89091 2.33384 8.87112C2.50126 8.86321 2.66466 8.85134 2.82807 8.85529C2.99149 8.87904 3.1584 8.883 3.32181 8.92257C3.48283 8.96072 3.6411 9.0095 3.79556 9.06851C3.9485 9.13223 4.09634 9.20728 4.23783 9.29311C4.3784 9.38201 4.51203 9.48125 4.63761 9.58994C4.74905 9.70817 4.87649 9.81849 4.97643 9.94464L5.25528 10.3404L5.20531 10.281L5.26078 10.3562C6.08934 11.7995 6.90325 13.2531 7.70248 14.7171C8.10497 15.4463 8.49926 16.1809 8.88535 16.921C9.27414 17.6601 9.66843 18.3938 10.0392 19.1428Z" fill="white"/>
</g>
</g>
<g style="mix-blend-mode:screen" opacity="0.7">
<g style="mix-blend-mode:screen" opacity="0.7">
<path d="M29.7183 24.0715V35.9158C29.6464 34.9299 29.6109 33.9405 29.559 32.9545C29.507 31.9685 29.4829 30.9791 29.4435 29.9937C29.4235 29.0077 29.3935 28.0183 29.3755 27.0323C29.3716 26.7093 29.3636 26.3858 29.3596 26.0627C29.2761 26.1532 29.1886 26.2438 29.1007 26.3308C28.7773 26.6087 28.3989 26.8168 27.9897 26.9418C27.7868 27.004 27.5788 27.0489 27.3681 27.0759C27.1546 27.095 26.9398 27.0923 26.727 27.068C26.2997 27.0254 25.8867 26.8923 25.5161 26.6776C25.3295 26.5665 25.157 26.4336 25.0023 26.2819L24.7674 26.0414C24.7077 25.9668 24.6519 25.8892 24.6 25.8089L24.5206 25.6941L24.4847 25.6392L24.4486 25.5838L24.4287 25.5522L24.2933 25.3117L24.0189 24.8309L23.4651 23.8647L22.3818 21.9289L21.3103 19.9812C20.952 19.3347 20.6132 18.6762 20.2669 18.0217C19.9241 17.3751 19.5817 16.7246 19.2549 16.0696L19.6812 16.7914L24.7714 25.4028C25.0663 25.901 25.5187 26.2893 26.0588 26.5076C26.5989 26.7259 27.1965 26.7621 27.7594 26.6106C28.3223 26.4592 28.8191 26.1284 29.1732 25.6695C29.5273 25.2105 29.7189 24.649 29.7183 24.0715Z" fill="#FF1313"/>
</g>
</g>
<path d="M49.7883 10.7892C49.7889 11.7041 49.6768 12.6153 49.4549 13.5002C49.2381 14.3681 48.9205 15.2049 48.5094 15.9917C48.2794 16.4288 48.0196 16.8479 47.732 17.2458C47.7208 17.2661 47.7126 17.2775 47.7099 17.2849L47.7073 17.2877C47.4834 17.5973 47.2441 17.8945 46.9905 18.178C46.6309 18.579 46.242 18.9501 45.8274 19.2878C45.8274 19.2878 42.8447 21.5337 39.2669 21.5337L38.6797 21.5364L36.1686 21.5537V14.2953H39.515C39.9557 14.2991 40.3923 14.2064 40.797 14.0233C41.1959 13.8457 41.5588 13.5898 41.8662 13.2694C42.1728 12.946 42.4163 12.5631 42.583 12.1419C42.7585 11.715 42.8468 11.2541 42.842 10.7892C42.8435 10.5534 42.8222 10.3182 42.7785 10.0869C42.777 10.0843 42.7762 10.0813 42.7759 10.0783C42.7343 9.85582 42.6696 9.63872 42.583 9.43094C42.2441 8.58335 41.6018 7.90886 40.794 7.55229C40.3904 7.36901 39.9548 7.27649 39.515 7.28072H36.1686C36.1681 5.34998 35.4365 3.49847 34.1344 2.1332C32.8325 0.767937 31.0667 0.000655633 29.2253 3.2351e-05H39.515C40.4382 -0.00235969 41.3573 0.12791 42.2467 0.387206C43.104 0.638007 43.9268 1.00433 44.6943 1.47701C44.9701 1.64748 45.2373 1.83245 45.4967 2.02917L45.5184 2.04328C46.68 2.92724 47.6542 4.05408 48.3797 5.35268C48.83 6.15881 49.1793 7.02243 49.419 7.92222C49.6662 8.85575 49.7904 9.82035 49.7883 10.7892Z" fill="url(#paint4_linear)"/>
<path d="M49.9995 25.1476C50.0001 24.2327 49.8881 23.3215 49.6662 22.4366C49.4493 21.5687 49.1318 20.7319 48.7206 19.9451C48.4906 19.508 48.2308 19.0889 47.9432 18.6911C47.932 18.6707 47.9238 18.6593 47.9212 18.6519L47.9186 18.6491C47.6946 18.3395 47.4553 18.0423 47.2017 17.7588C46.8421 17.3578 46.4532 16.9868 46.0387 16.649C46.0387 16.649 43.0559 14.4032 39.4781 14.4032L38.891 14.4004L36.3799 14.3832V21.6415H39.7263C40.167 21.6378 40.6036 21.7304 41.0082 21.9135C41.4071 22.0912 41.7701 22.3471 42.0775 22.6675C42.384 22.9908 42.6275 23.3738 42.7943 23.7949C42.9698 24.2219 43.058 24.6827 43.0533 25.1476C43.0548 25.3834 43.0335 25.6187 42.9897 25.8499C42.9883 25.8525 42.9874 25.8555 42.9871 25.8585C42.9455 26.081 42.8808 26.2981 42.7943 26.5059C42.4554 27.3535 41.8131 28.028 41.0052 28.3845C40.6017 28.5678 40.166 28.6603 39.7263 28.6561H36.3799C36.3794 30.5868 35.6477 32.4384 34.3457 33.8036C33.0437 35.1689 31.2779 35.9362 29.4366 35.9368H39.7263C40.6494 35.9392 41.5685 35.8089 42.4579 35.5496C43.3153 35.2988 44.138 34.9325 44.9055 34.4598C45.1813 34.2893 45.4486 34.1044 45.7079 33.9077L45.7296 33.8936C46.8912 33.0096 47.8655 31.8827 48.5909 30.5841C49.0412 29.778 49.3905 28.9144 49.6303 28.0146C49.8774 27.0811 50.0016 26.1165 49.9995 25.1476Z" fill="url(#paint5_linear)"/>
<path d="M37.6056 9.95615V36H29.7183V0C31.81 0.000852325 33.8159 1.05009 35.2949 2.91706C36.7739 4.78403 37.6051 7.31591 37.6056 9.95615Z" fill="url(#paint6_linear)"/>
<path d="M37.6056 9.95615V36H29.7183V0C31.81 0.000852325 33.8159 1.05009 35.2949 2.91706C36.7739 4.78403 37.6051 7.31591 37.6056 9.95615Z" fill="url(#paint7_linear)"/>
<g style="mix-blend-mode:multiply" opacity="0.16">
<g style="mix-blend-mode:multiply" opacity="0.16">
<path d="M36.3802 7.44892C36.3797 5.51818 35.6481 3.66668 34.346 2.30142C33.0441 0.936149 31.2783 0.168867 29.437 0.168243H35.7243C37.1273 1.54412 38.4754 3.79859 38.8088 7.44892H36.3802Z" fill="black"/>
</g>
</g>
<g style="mix-blend-mode:multiply" opacity="0.16">
<g style="mix-blend-mode:multiply" opacity="0.16">
<path d="M38.8914 14.4635V21.7034L36.3803 21.7207V14.4635H38.8914Z" fill="black"/>
</g>
</g>
<g style="mix-blend-mode:multiply" opacity="0.16">
<g style="mix-blend-mode:multiply" opacity="0.16">
<path d="M46.8935 21.5706C44.8371 22.7007 42.5935 23.4079 40.2836 23.6542L39.4775 21.7007C43.0553 21.7007 46.038 19.4549 46.038 19.4549L46.8935 21.5706Z" fill="black"/>
</g>
</g>
<g style="mix-blend-mode:multiply" opacity="0.25">
<g style="mix-blend-mode:multiply" opacity="0.25">
<path d="M50 10.9574C50.0006 11.8723 49.8885 12.7835 49.6666 13.6684C49.4498 14.5363 49.1322 15.3731 48.7211 16.1599C48.4911 16.597 48.2313 17.0161 47.9437 17.4139C47.9934 17.3301 48.1145 17.1279 48.2771 16.8187C48.5741 16.2553 48.8294 15.6687 49.0406 15.0642C49.3357 14.2182 49.5384 13.3397 49.6446 12.4457C49.6998 11.9449 49.7255 11.4411 49.7216 10.937C49.7167 10.4163 49.6762 9.89663 49.6005 9.38202C49.5286 8.86733 49.4198 8.35907 49.2749 7.86154C49.135 7.3791 48.9666 6.90622 48.7708 6.44569C48.584 6.01443 48.3741 5.59457 48.1421 5.18816C47.9179 4.80372 47.6847 4.44829 47.4556 4.13322C47.083 3.62171 46.6729 3.1415 46.229 2.697C45.9068 2.37017 45.7084 2.19696 45.7084 2.19696L45.7301 2.21107C46.8917 3.09504 47.866 4.22187 48.5914 5.52047C49.0417 6.3266 49.391 7.19022 49.6307 8.09C49.8779 9.02369 50.0021 9.98841 50 10.9574Z" fill="black"/>
</g>
</g>
<g style="mix-blend-mode:multiply" opacity="0.25">
<g style="mix-blend-mode:multiply" opacity="0.25">
<path d="M48.8862 26.4953H43.343C43.806 26.4232 44.2665 26.3797 44.7295 26.3386C45.1926 26.2974 45.653 26.2692 46.1123 26.2461C46.5717 26.223 47.0385 26.2116 47.4989 26.2026L48.4579 26.194C48.3641 25.9514 48.271 25.7084 48.1825 25.4627C48.0363 25.0787 47.8984 24.6943 47.7661 24.304C47.6338 23.9137 47.5045 23.5237 47.3801 23.1283C47.2556 22.7329 47.1431 22.3395 47.0437 21.9406L48.8862 26.4953Z" fill="black"/>
</g>
</g>
<g style="mix-blend-mode:screen" opacity="0.7">
<g style="mix-blend-mode:screen" opacity="0.7">
<path d="M29.7262 13.3333C29.7236 14.1563 29.7206 14.9792 29.7154 15.7873C29.7101 16.5953 29.6986 17.394 29.6903 18.166C29.6713 19.7092 29.6406 21.1485 29.6021 22.3826C29.5334 24.8514 29.437 26.4953 29.437 26.4953V0.168243C29.437 0.168243 29.5334 1.81413 29.6021 4.28099C29.6395 5.5154 29.6713 6.95437 29.6903 8.49798C29.6986 9.26958 29.7154 10.0674 29.7154 10.8767C29.7154 11.6859 29.7229 12.5096 29.7262 13.3333Z" fill="white"/>
</g>
</g>
<g style="mix-blend-mode:multiply" opacity="0.25">
<g style="mix-blend-mode:multiply" opacity="0.25">
<path d="M43.1805 11.524C43.17 11.7401 43.1368 11.9543 43.0814 12.1628C43.0511 12.2725 43.0123 12.394 42.9764 12.4978C42.9346 12.6147 42.8859 12.7287 42.8306 12.8392C42.7163 13.0737 42.5757 13.293 42.4117 13.4924C42.242 13.6974 42.0515 13.8824 41.8436 14.0442C41.6311 14.2001 41.4039 14.3329 41.1656 14.4404C40.935 14.5428 40.6935 14.6155 40.4462 14.6571C40.2166 14.696 39.9834 14.7067 39.7514 14.6888C39.5421 14.6775 39.3493 14.6571 39.1673 14.6367C38.4478 14.5646 37.968 14.4635 37.968 14.4635H39.7268C40.1674 14.4673 40.604 14.3747 41.0087 14.1915C41.4076 14.0139 41.7705 13.758 42.0779 13.4376C42.3845 13.1142 42.628 12.7312 42.7948 12.3101C42.9703 11.8831 43.0585 11.4223 43.0538 10.9574C43.0552 10.7216 43.0339 10.4864 42.9902 10.2551C43.0343 10.3606 43.0695 10.47 43.0952 10.582C43.1677 10.8898 43.1964 11.2073 43.1805 11.524Z" fill="black"/>
</g>
</g>
<g style="mix-blend-mode:screen" opacity="0.7">
<g style="mix-blend-mode:screen" opacity="0.7">
<path d="M36.3802 7.44887V26.4941C36.3802 26.4941 36.3555 26.0176 36.3279 25.1848C36.3002 24.3521 36.2531 23.1588 36.2232 21.7312C36.1859 20.3032 36.1571 18.6354 36.1377 16.8496C36.1294 15.9565 36.1212 15.0344 36.113 14.0951C36.1048 13.1558 36.1074 12.2051 36.1048 11.254C36.1022 10.3029 36.11 9.34634 36.1156 8.41015C36.113 7.9446 36.1268 7.46964 36.113 7.03153C36.0935 6.59556 36.0345 6.16254 35.9366 5.73833C35.7513 4.92915 35.4342 4.15958 34.9993 3.46348C34.2658 2.29738 33.2303 1.37497 32.0142 0.804596C31.5825 0.601416 31.1315 0.446425 30.6688 0.342181C30.3693 0.274579 30.0665 0.224342 29.7617 0.1917C29.5495 0.1772 29.4366 0.168579 29.4366 0.168579C31.2779 0.169202 33.0437 0.936482 34.3457 2.30175C35.6477 3.66702 36.3794 5.51853 36.3798 7.44927L36.3802 7.44887Z" fill="white"/>
</g>
</g>
<defs>
<linearGradient id="paint0_linear" x1="9.88795" y1="22.5755" x2="1.35636" y2="22.5755" gradientUnits="userSpaceOnUse">
<stop stop-color="#C33764"/>
<stop offset="1" stop-color="#1D2671"/>
</linearGradient>
<linearGradient id="paint1_linear" x1="29.5492" y1="13.8787" x2="21.0176" y2="13.8787" gradientUnits="userSpaceOnUse">
<stop stop-color="#C33764"/>
<stop offset="1" stop-color="#1D2671"/>
</linearGradient>
<linearGradient id="paint2_linear" x1="0" y1="17.9579" x2="29.7182" y2="17.9579" gradientUnits="userSpaceOnUse">
<stop stop-color="#FCC400"/>
<stop offset="0.162" stop-color="#FBC000"/>
<stop offset="0.307" stop-color="#FBB500"/>
<stop offset="0.446" stop-color="#FBA300"/>
<stop offset="0.581" stop-color="#FA8900"/>
<stop offset="0.712" stop-color="#FA6800"/>
<stop offset="0.842" stop-color="#F93F00"/>
<stop offset="0.967" stop-color="#F81000"/>
<stop offset="1" stop-color="#F80300"/>
</linearGradient>
<linearGradient id="paint3_linear" x1="14.8591" y1="0" x2="14.8591" y2="35.9159" gradientUnits="userSpaceOnUse">
<stop stop-color="white"/>
<stop offset="1" stop-color="white" stop-opacity="0"/>
</linearGradient>
<linearGradient id="paint4_linear" x1="49.4799" y1="10.7768" x2="32.0013" y2="10.7768" gradientUnits="userSpaceOnUse">
<stop stop-color="#C33764"/>
<stop offset="1" stop-color="#1D2671"/>
</linearGradient>
<linearGradient id="paint5_linear" x1="49.6911" y1="25.16" x2="32.2126" y2="25.16" gradientUnits="userSpaceOnUse">
<stop stop-color="#C33764"/>
<stop offset="1" stop-color="#1D2671"/>
</linearGradient>
<linearGradient id="paint6_linear" x1="29.7183" y1="18" x2="37.6056" y2="18" gradientUnits="userSpaceOnUse">
<stop stop-color="#FCC400"/>
<stop offset="0.162" stop-color="#FBC000"/>
<stop offset="0.307" stop-color="#FBB500"/>
<stop offset="0.446" stop-color="#FBA300"/>
<stop offset="0.581" stop-color="#FA8900"/>
<stop offset="0.712" stop-color="#FA6800"/>
<stop offset="0.842" stop-color="#F93F00"/>
<stop offset="0.967" stop-color="#F81000"/>
<stop offset="1" stop-color="#F80300"/>
</linearGradient>
<linearGradient id="paint7_linear" x1="33.662" y1="0" x2="33.662" y2="36" gradientUnits="userSpaceOnUse">
<stop stop-color="white"/>
<stop offset="1" stop-color="white" stop-opacity="0"/>
</linearGradient>
</defs>
</svg>
